<svg aria-hidden="true" style="position: absolute; width: 0; height: 0; overflow: hidden;" version="1.1" xmlns="http://www.w3.org/2000/svg" xmlns:xlink="http://www.w3.org/1999/xlink">
<defs>
<symbol id="icon-search" viewBox="0 0 32 32">
<path d="M12 2.667c-5.139 0-9.333 4.194-9.333 9.333s4.194 9.333 9.333 9.333c2.331 0 4.46-0.869 6.099-2.292l0.568 0.568v1.724l8 8 2.667-2.667-8-8h-1.724l-0.568-0.568c1.422-1.639 2.292-3.768 2.292-6.099 0-5.139-4.194-9.333-9.333-9.333zM12 5.333c3.698 0 6.667 2.969 6.667 6.667s-2.969 6.667-6.667 6.667c-3.698 0-6.667-2.969-6.667-6.667s2.969-6.667 6.667-6.667z"></path>
</symbol>
<symbol id="icon-pdf" viewBox="0 0 32 32">
<path d="M8 2.667c-1.459 0-2.667 1.208-2.667 2.667v6.667c-1.473 0-2.667 1.193-2.667 2.667v6.667c0 1.473 1.193 2.667 2.667 2.667v2.667c0 1.459 1.208 2.667 2.667 2.667h16c1.459 0 2.667-1.208 2.667-2.667v-17.333l-6.667-6.667h-12zM8 5.333h10.667v5.333h5.333v1.333h-16v-6.667zM5.333 14.667h2c1.104 0 2 0.896 2 2s-0.896 2-2 2h-0.667v2.667h-1.333v-6.667zM17.333 14.667h4v1.333h-2.667v1.333h2.133v1.333h-2.133v2.667h-1.333v-6.667zM10.667 14.698h2.172c2.109 0 3.161 1.269 3.161 2.807v1.029c0 1.557-1.054 2.799-3.18 2.799h-2.154v-6.635zM6.667 16v1.333h0.667c0.368 0 0.667-0.299 0.667-0.667s-0.299-0.667-0.667-0.667h-0.667zM12 16.031v3.969h0.82c0.843 0 1.846-0.255 1.846-1.466v-1.029c0-1.219-0.993-1.474-1.828-1.474h-0.839zM8 24h16v2.667h-16v-2.667z"></path>
</symbol>
<symbol id="icon-key" viewBox="0 0 32 32">
<path d="M9.333 6.667c-5.127 0-9.333 4.206-9.333 9.333s4.206 9.333 9.333 9.333c3.7 0 6.786-2.247 8.362-5.333h3.638v4h8v-4h2.667v-8h-14.284c-1.486-3.099-4.597-5.333-8.383-5.333zM9.333 9.333c3.040 0 5.457 1.895 6.341 4.438l0.31 0.896h13.349v2.667h-2.667v4h-2.667v-4h-7.977l-0.331 0.846c-1.013 2.588-3.474 4.487-6.359 4.487-3.673 0-6.667-2.994-6.667-6.667s2.994-6.667 6.667-6.667zM9.333 12c-2.193 0-4 1.807-4 4s1.807 4 4 4c2.193 0 4-1.807 4-4s-1.807-4-4-4zM9.333 14.667c0.752 0 1.333 0.581 1.333 1.333s-0.581 1.333-1.333 1.333c-0.752 0-1.333-0.581-1.333-1.333s0.581-1.333 1.333-1.333z"></path>
</symbol>
<symbol id="icon-double-right" viewBox="0 0 32 32">
<path d="M7.331 4.049l-1.87 1.901 10.198 10.047-10.258 10.049 1.865 1.906 12.198-11.951-12.133-11.953zM15.112 4.060l-1.891 1.88 10.010 10.068-9.852 10.060 1.906 1.865 11.693-11.94-11.867-11.932z"></path>
</symbol>
<symbol id="icon-double-left" viewBox="0 0 32 32">
<path d="M24.669 4.049l-12.133 11.953 12.198 11.951 1.865-1.906-10.258-10.049 10.198-10.047-1.87-1.901zM16.888 4.060l-11.867 11.932 11.693 11.94 1.906-1.865-9.852-10.060 10.010-10.068-1.891-1.88z"></path>
</symbol>
<symbol id="icon-csv" viewBox="0 0 32 32">
<path d="M8 2.667c-1.473 0-2.667 1.193-2.667 2.667v6.667h-1.333c-1.473 0-2.667 1.193-2.667 2.667v6.667c0 1.473 1.193 2.667 2.667 2.667h1.333v2.667c0 1.473 1.193 2.667 2.667 2.667h16c1.473 0 2.667-1.193 2.667-2.667v-17.333l-6.667-6.667h-12zM8 5.333h10.667v5.333h5.333v1.333h-16v-6.667zM6.667 14.667c1.473 0 2.667 1.193 2.667 2.667h-1.333c0-0.735-0.599-1.333-1.333-1.333s-1.333 0.599-1.333 1.333v1.333c0 0.735 0.599 1.333 1.333 1.333s1.333-0.599 1.333-1.333h1.333c0 1.473-1.193 2.667-2.667 2.667s-2.667-1.193-2.667-2.667v-1.333c0-1.473 1.193-2.667 2.667-2.667zM12.859 14.667c1.897 0.055 2.013 1.711 2.013 2.005h-1.289c0-0.137 0.023-0.93-0.745-0.93-0.233 0-0.759 0.103-0.719 0.747 0.039 0.591 0.818 0.87 0.961 0.932 0.299 0.109 1.774 0.768 1.786 2.112 0.003 0.285-0.071 1.779-1.982 1.799-2.079 0.023-2.219-1.766-2.219-2.135h1.299c0 0.196 0.017 1.144 0.919 1.070 0.543-0.045 0.661-0.436 0.68-0.727 0.031-0.489-0.436-0.784-0.93-1.021-0.693-0.333-1.79-0.743-1.81-2.042-0.017-1.169 0.842-1.846 2.034-1.813zM16 14.667h1.404l1.253 4.862 1.26-4.862h1.417l-1.805 6.667h-1.734l-1.794-6.667zM8 24h16v2.667h-16v-2.667z"></path>
</symbol>
<symbol id="icon-close" viewBox="0 0 32 32">
<path d="M6.276 4.391l-1.885 1.885 9.724 9.724-9.724 9.724 1.885 1.885 9.724-9.724 9.724 9.724 1.885-1.885-9.724-9.724 9.724-9.724-1.885-1.885-9.724 9.724-9.724-9.724z"></path>
</symbol>
<symbol id="icon-check" viewBox="0 0 32 32">
<path d="M16 2.667c-7.348 0-13.333 5.985-13.333 13.333s5.985 13.333 13.333 13.333c7.348 0 13.333-5.985 13.333-13.333s-5.985-13.333-13.333-13.333zM16 5.333c5.907 0 10.667 4.76 10.667 10.667s-4.76 10.667-10.667 10.667c-5.907 0-10.667-4.76-10.667-10.667s4.76-10.667 10.667-10.667zM21.724 11.057l-8.391 8.391-3.057-3.057-1.885 1.885 4.943 4.943 10.276-10.276-1.885-1.885z"></path>
</symbol>
<symbol id="icon-cancel" viewBox="0 0 32 32">
<path d="M16 2.667c-7.348 0-13.333 5.985-13.333 13.333s5.985 13.333 13.333 13.333c7.348 0 13.333-5.985 13.333-13.333s-5.985-13.333-13.333-13.333zM16 5.333c5.907 0 10.667 4.76 10.667 10.667s-4.76 10.667-10.667 10.667c-5.907 0-10.667-4.76-10.667-10.667s4.76-10.667 10.667-10.667zM11.609 9.724l-1.885 1.885 4.391 4.391-4.391 4.391 1.885 1.885 4.391-4.391 4.391 4.391 1.885-1.885-4.391-4.391 4.391-4.391-1.885-1.885-4.391 4.391-4.391-4.391z"></path>
</symbol>
<symbol id="icon-account_number" viewBox="0 0 32 32">
<path d="M2.667 8c-1.457 0-2.667 1.209-2.667 2.667v10.667c0 1.457 1.209 2.667 2.667 2.667h26.667c1.457 0 2.667-1.209 2.667-2.667v-10.667c0-1.457-1.209-2.667-2.667-2.667h-26.667zM2.667 10.667h26.667v10.667h-26.667v-10.667zM4 12v2.667h1.333v5.333h2.667v-8h-4zM10.667 17.333v2.667h2.667v-2.667h-2.667zM16 17.333v2.667h2.667v-2.667h-2.667z"></path>
</symbol>
</defs>
</svg>
